<svg xmlns="http://www.w3.org/2000/svg" width="375" viewBox="0 0 375 375" height="375" version="1.0"><defs><clipPath id="a"><path d="M 17.257812 152 L 36 152 L 36 233 L 17.257812 233 Z M 17.257812 152"/></clipPath><clipPath id="b"><path d="M 339 148 L 357.757812 148 L 357.757812 238 L 339 238 Z M 339 148"/></clipPath></defs><path fill="#FFF" d="M 59.640625 51.308594 C 58.914062 51.328125 58.199219 51.414062 57.492188 51.574219 C 56.785156 51.730469 56.101562 51.957031 55.4375 52.246094 C 54.773438 52.539062 54.144531 52.894531 53.550781 53.308594 C 52.957031 53.722656 52.410156 54.191406 51.90625 54.714844 C 51.402344 55.234375 50.957031 55.800781 50.5625 56.414062 C 50.171875 57.023438 49.84375 57.664062 49.578125 58.339844 C 49.308594 59.011719 49.113281 59.707031 48.980469 60.421875 C 48.851562 61.132812 48.789062 61.851562 48.800781 62.578125 C 48.808594 63.304688 48.886719 64.019531 49.039062 64.730469 C 49.1875 65.4375 49.40625 66.128906 49.691406 66.792969 C 49.972656 67.460938 50.320312 68.09375 50.726562 68.695312 C 51.136719 69.292969 51.597656 69.847656 52.113281 70.355469 C 52.632812 70.863281 53.191406 71.316406 53.796875 71.71875 C 54.402344 72.117188 55.039062 72.453125 55.710938 72.726562 C 56.382812 73 57.074219 73.207031 57.785156 73.34375 C 58.496094 73.484375 59.210938 73.554688 59.9375 73.550781 C 60.660156 73.550781 61.378906 73.476562 62.089844 73.335938 C 62.800781 73.191406 63.488281 72.984375 64.160156 72.707031 C 64.828125 72.429688 65.464844 72.089844 66.066406 71.6875 C 66.671875 71.285156 67.230469 70.828125 67.742188 70.316406 C 68.257812 69.804688 68.714844 69.25 69.121094 68.648438 C 69.527344 68.046875 69.871094 67.410156 70.148438 66.742188 C 70.429688 66.074219 70.644531 65.386719 70.792969 64.675781 C 70.9375 63.964844 71.015625 63.246094 71.019531 62.523438 C 71.019531 61.777344 70.945312 61.042969 70.800781 60.3125 C 70.652344 59.582031 70.4375 58.875 70.148438 58.191406 C 69.863281 57.503906 69.511719 56.851562 69.09375 56.238281 C 68.679688 55.621094 68.207031 55.050781 67.675781 54.53125 C 67.144531 54.007812 66.570312 53.542969 65.949219 53.136719 C 65.328125 52.730469 64.671875 52.386719 63.980469 52.113281 C 63.292969 51.835938 62.582031 51.628906 61.851562 51.496094 C 61.121094 51.359375 60.382812 51.296875 59.640625 51.308594 Z M 59.640625 51.308594"/><path fill="#FFF" d="M 269.855469 79.027344 C 269.230469 79.027344 268.613281 79.085938 268 79.207031 C 267.390625 79.328125 266.796875 79.511719 266.21875 79.75 C 265.644531 79.988281 265.09375 80.28125 264.578125 80.628906 C 264.058594 80.976562 263.578125 81.367188 263.136719 81.808594 C 262.695312 82.25 262.304688 82.730469 261.957031 83.25 C 261.609375 83.769531 261.316406 84.316406 261.078125 84.894531 C 260.839844 85.472656 260.660156 86.066406 260.539062 86.679688 C 260.417969 87.289062 260.355469 87.910156 260.355469 88.53125 C 260.355469 89.15625 260.417969 89.777344 260.539062 90.386719 C 260.660156 91 260.839844 91.59375 261.078125 92.171875 C 261.316406 92.75 261.609375 93.296875 261.957031 93.816406 C 262.304688 94.335938 262.695312 94.816406 263.136719 95.257812 C 263.578125 95.699219 264.058594 96.089844 264.578125 96.4375 C 265.09375 96.785156 265.644531 97.078125 266.21875 97.316406 C 266.796875 97.554688 267.390625 97.734375 268 97.859375 C 268.613281 97.980469 269.230469 98.039062 269.855469 98.039062 C 270.476562 98.039062 271.09375 97.980469 271.707031 97.859375 C 272.320312 97.734375 272.914062 97.554688 273.488281 97.316406 C 274.066406 97.078125 274.613281 96.785156 275.128906 96.4375 C 275.648438 96.089844 276.128906 95.699219 276.570312 95.257812 C 277.011719 94.816406 277.40625 94.335938 277.75 93.816406 C 278.097656 93.296875 278.390625 92.75 278.628906 92.171875 C 278.867188 91.59375 279.046875 91 279.167969 90.386719 C 279.292969 89.777344 279.351562 89.15625 279.351562 88.53125 C 279.351562 87.910156 279.292969 87.289062 279.167969 86.679688 C 279.046875 86.066406 278.867188 85.472656 278.628906 84.894531 C 278.390625 84.316406 278.097656 83.769531 277.75 83.25 C 277.40625 82.730469 277.011719 82.25 276.570312 81.808594 C 276.128906 81.367188 275.648438 80.976562 275.128906 80.628906 C 274.613281 80.28125 274.066406 79.988281 273.488281 79.75 C 272.914062 79.511719 272.320312 79.328125 271.707031 79.207031 C 271.09375 79.085938 270.476562 79.027344 269.855469 79.027344 Z M 269.855469 79.027344"/><path fill="#FFF" d="M 126.214844 307.296875 C 125.628906 307.296875 125.046875 307.351562 124.46875 307.46875 C 123.890625 307.582031 123.332031 307.753906 122.789062 307.976562 C 122.242188 308.203125 121.726562 308.480469 121.238281 308.808594 C 120.75 309.132812 120.296875 309.507812 119.878906 309.921875 C 119.464844 310.339844 119.09375 310.792969 118.765625 311.28125 C 118.4375 311.773438 118.164062 312.289062 117.9375 312.832031 C 117.714844 313.375 117.542969 313.9375 117.429688 314.515625 C 117.3125 315.09375 117.257812 315.675781 117.257812 316.265625 C 117.257812 316.855469 117.3125 317.4375 117.429688 318.015625 C 117.542969 318.59375 117.714844 319.152344 117.9375 319.699219 C 118.164062 320.242188 118.4375 320.757812 118.765625 321.246094 C 119.09375 321.738281 119.464844 322.191406 119.878906 322.605469 C 120.296875 323.023438 120.75 323.394531 121.238281 323.722656 C 121.726562 324.050781 122.242188 324.324219 122.789062 324.550781 C 123.332031 324.777344 123.890625 324.945312 124.46875 325.0625 C 125.046875 325.175781 125.628906 325.234375 126.214844 325.234375 C 126.804688 325.234375 127.386719 325.175781 127.964844 325.0625 C 128.542969 324.945312 129.101562 324.777344 129.644531 324.550781 C 130.1875 324.324219 130.707031 324.050781 131.195312 323.722656 C 131.683594 323.394531 132.136719 323.023438 132.550781 322.605469 C 132.96875 322.191406 133.339844 321.738281 133.667969 321.246094 C 133.992188 320.757812 134.269531 320.242188 134.496094 319.699219 C 134.71875 319.152344 134.890625 318.59375 135.003906 318.015625 C 135.121094 317.4375 135.175781 316.855469 135.175781 316.265625 C 135.175781 315.675781 135.121094 315.09375 135.003906 314.515625 C 134.890625 313.9375 134.71875 313.375 134.496094 312.832031 C 134.269531 312.289062 133.992188 311.773438 133.667969 311.28125 C 133.339844 310.792969 132.96875 310.339844 132.550781 309.921875 C 132.136719 309.507812 131.683594 309.132812 131.195312 308.808594 C 130.707031 308.480469 130.1875 308.203125 129.644531 307.976562 C 129.101562 307.753906 128.542969 307.582031 127.964844 307.46875 C 127.386719 307.351562 126.804688 307.296875 126.214844 307.296875 Z M 126.214844 307.296875"/><path fill="#FFF" d="M 288.042969 288.910156 C 287.703125 288.910156 287.363281 288.941406 287.03125 289.007812 C 286.695312 289.074219 286.371094 289.171875 286.054688 289.304688 C 285.738281 289.433594 285.441406 289.59375 285.15625 289.785156 C 284.871094 289.976562 284.609375 290.191406 284.367188 290.433594 C 284.128906 290.671875 283.910156 290.9375 283.722656 291.21875 C 283.53125 291.503906 283.371094 291.804688 283.242188 292.121094 C 283.113281 292.433594 283.011719 292.761719 282.945312 293.097656 C 282.878906 293.429688 282.847656 293.769531 282.847656 294.109375 C 282.847656 294.453125 282.878906 294.789062 282.945312 295.125 C 283.011719 295.460938 283.113281 295.785156 283.242188 296.101562 C 283.371094 296.417969 283.53125 296.71875 283.722656 297 C 283.910156 297.285156 284.128906 297.546875 284.367188 297.789062 C 284.609375 298.03125 284.871094 298.246094 285.15625 298.4375 C 285.441406 298.625 285.738281 298.785156 286.054688 298.917969 C 286.371094 299.046875 286.695312 299.144531 287.03125 299.214844 C 287.363281 299.28125 287.703125 299.3125 288.042969 299.3125 C 288.386719 299.3125 288.722656 299.28125 289.058594 299.214844 C 289.390625 299.144531 289.71875 299.046875 290.03125 298.917969 C 290.347656 298.785156 290.648438 298.625 290.929688 298.4375 C 291.214844 298.246094 291.476562 298.03125 291.71875 297.789062 C 291.960938 297.546875 292.175781 297.285156 292.363281 297 C 292.554688 296.71875 292.714844 296.417969 292.84375 296.101562 C 292.976562 295.785156 293.074219 295.460938 293.140625 295.125 C 293.207031 294.789062 293.242188 294.453125 293.242188 294.109375 C 293.242188 293.769531 293.207031 293.429688 293.140625 293.097656 C 293.074219 292.761719 292.976562 292.433594 292.84375 292.121094 C 292.714844 291.804688 292.554688 291.503906 292.363281 291.21875 C 292.175781 290.9375 291.960938 290.671875 291.71875 290.433594 C 291.476562 290.191406 291.214844 289.976562 290.929688 289.785156 C 290.648438 289.59375 290.347656 289.433594 290.03125 289.304688 C 289.71875 289.171875 289.390625 289.074219 289.058594 289.007812 C 288.722656 288.941406 288.386719 288.910156 288.042969 288.910156 Z M 288.042969 288.910156"/><path fill="#FFF" d="M 187.507812 219.84375 C 188.679688 219.84375 189.851562 219.785156 191.019531 219.671875 C 192.1875 219.554688 193.347656 219.382812 194.5 219.15625 C 195.648438 218.925781 196.789062 218.640625 197.910156 218.300781 C 199.035156 217.957031 200.136719 217.5625 201.222656 217.113281 C 202.308594 216.664062 203.367188 216.160156 204.402344 215.609375 C 205.4375 215.054688 206.441406 214.449219 207.417969 213.796875 C 208.394531 213.144531 209.335938 212.445312 210.246094 211.699219 C 211.152344 210.957031 212.019531 210.167969 212.851562 209.335938 C 213.679688 208.503906 214.46875 207.636719 215.210938 206.726562 C 215.957031 205.820312 216.65625 204.875 217.308594 203.898438 C 217.960938 202.921875 218.5625 201.914062 219.117188 200.878906 C 219.667969 199.84375 220.171875 198.78125 220.621094 197.695312 C 221.070312 196.609375 221.464844 195.507812 221.804688 194.382812 C 222.144531 193.257812 222.429688 192.117188 222.660156 190.964844 C 222.890625 189.8125 223.0625 188.652344 223.175781 187.484375 C 223.292969 186.3125 223.347656 185.140625 223.347656 183.96875 L 223.347656 130.152344 C 223.347656 128.976562 223.292969 127.804688 223.175781 126.632812 C 223.0625 125.464844 222.890625 124.304688 222.660156 123.152344 C 222.429688 122 222.144531 120.859375 221.804688 119.734375 C 221.464844 118.613281 221.070312 117.507812 220.621094 116.421875 C 220.171875 115.335938 219.667969 114.273438 219.117188 113.238281 C 218.5625 112.203125 217.960938 111.195312 217.308594 110.21875 C 216.65625 109.242188 215.957031 108.296875 215.210938 107.390625 C 214.46875 106.480469 213.679688 105.613281 212.851562 104.78125 C 212.019531 103.949219 211.152344 103.164062 210.246094 102.417969 C 209.335938 101.671875 208.394531 100.972656 207.417969 100.320312 C 206.441406 99.667969 205.4375 99.0625 204.402344 98.511719 C 203.367188 97.957031 202.308594 97.453125 201.222656 97.003906 C 200.136719 96.554688 199.035156 96.160156 197.910156 95.820312 C 196.789062 95.476562 195.648438 95.191406 194.5 94.960938 C 193.347656 94.734375 192.1875 94.5625 191.019531 94.445312 C 189.851562 94.332031 188.679688 94.273438 187.507812 94.273438 C 186.332031 94.273438 185.160156 94.332031 183.992188 94.445312 C 182.824219 94.5625 181.664062 94.734375 180.515625 94.960938 C 179.363281 95.191406 178.226562 95.476562 177.101562 95.820312 C 175.980469 96.160156 174.875 96.554688 173.789062 97.003906 C 172.707031 97.453125 171.644531 97.957031 170.609375 98.511719 C 169.574219 99.0625 168.570312 99.667969 167.59375 100.320312 C 166.617188 100.972656 165.675781 101.671875 164.769531 102.417969 C 163.859375 103.164062 162.992188 103.949219 162.164062 104.78125 C 161.332031 105.613281 160.546875 106.480469 159.800781 107.390625 C 159.054688 108.300781 158.355469 109.242188 157.703125 110.21875 C 157.054688 111.195312 156.449219 112.203125 155.898438 113.238281 C 155.34375 114.273438 154.84375 115.335938 154.394531 116.421875 C 153.945312 117.507812 153.546875 118.613281 153.207031 119.734375 C 152.867188 120.859375 152.582031 122 152.351562 123.152344 C 152.125 124.304688 151.953125 125.464844 151.835938 126.632812 C 151.722656 127.804688 151.664062 128.976562 151.664062 130.152344 L 151.664062 183.96875 C 151.664062 185.140625 151.722656 186.3125 151.835938 187.484375 C 151.953125 188.652344 152.125 189.8125 152.351562 190.964844 C 152.582031 192.117188 152.867188 193.257812 153.207031 194.382812 C 153.546875 195.507812 153.945312 196.609375 154.394531 197.695312 C 154.84375 198.78125 155.34375 199.84375 155.898438 200.878906 C 156.449219 201.914062 157.054688 202.921875 157.703125 203.898438 C 158.355469 204.875 159.054688 205.820312 159.800781 206.726562 C 160.546875 207.636719 161.332031 208.503906 162.164062 209.335938 C 162.992188 210.167969 163.859375 210.957031 164.769531 211.699219 C 165.675781 212.445312 166.617188 213.144531 167.59375 213.796875 C 168.570312 214.449219 169.574219 215.054688 170.609375 215.609375 C 171.644531 216.160156 172.707031 216.664062 173.789062 217.113281 C 174.875 217.5625 175.980469 217.957031 177.101562 218.300781 C 178.226562 218.640625 179.363281 218.925781 180.515625 219.15625 C 181.664062 219.382812 182.824219 219.554688 183.992188 219.671875 C 185.160156 219.785156 186.332031 219.84375 187.507812 219.84375 Z M 169.585938 130.152344 C 169.585938 129.5625 169.613281 128.976562 169.671875 128.394531 C 169.730469 127.808594 169.816406 127.226562 169.929688 126.652344 C 170.042969 126.074219 170.1875 125.503906 170.355469 124.945312 C 170.527344 124.382812 170.726562 123.828125 170.949219 123.285156 C 171.175781 122.742188 171.425781 122.210938 171.703125 121.695312 C 171.976562 121.175781 172.28125 120.671875 172.605469 120.183594 C 172.933594 119.695312 173.28125 119.226562 173.652344 118.769531 C 174.027344 118.316406 174.417969 117.882812 174.835938 117.464844 C 175.25 117.050781 175.683594 116.65625 176.136719 116.285156 C 176.589844 115.910156 177.0625 115.5625 177.550781 115.234375 C 178.039062 114.910156 178.539062 114.605469 179.058594 114.332031 C 179.578125 114.054688 180.105469 113.800781 180.648438 113.578125 C 181.191406 113.351562 181.742188 113.15625 182.304688 112.984375 C 182.867188 112.8125 183.433594 112.671875 184.011719 112.558594 C 184.585938 112.441406 185.164062 112.355469 185.75 112.296875 C 186.335938 112.242188 186.917969 112.210938 187.507812 112.210938 C 188.09375 112.210938 188.679688 112.242188 189.261719 112.296875 C 189.847656 112.355469 190.425781 112.441406 191.003906 112.558594 C 191.578125 112.671875 192.148438 112.8125 192.707031 112.984375 C 193.269531 113.15625 193.824219 113.351562 194.363281 113.578125 C 194.90625 113.800781 195.4375 114.054688 195.953125 114.332031 C 196.472656 114.605469 196.976562 114.910156 197.464844 115.234375 C 197.949219 115.5625 198.421875 115.910156 198.875 116.285156 C 199.328125 116.65625 199.761719 117.050781 200.179688 117.464844 C 200.59375 117.882812 200.988281 118.316406 201.359375 118.769531 C 201.730469 119.226562 202.082031 119.695312 202.40625 120.183594 C 202.734375 120.671875 203.035156 121.175781 203.3125 121.695312 C 203.589844 122.210938 203.839844 122.742188 204.0625 123.285156 C 204.289062 123.828125 204.484375 124.382812 204.65625 124.945312 C 204.828125 125.503906 204.96875 126.074219 205.082031 126.652344 C 205.199219 127.226562 205.285156 127.808594 205.339844 128.394531 C 205.398438 128.976562 205.425781 129.5625 205.425781 130.152344 L 205.425781 183.96875 C 205.425781 184.554688 205.398438 185.140625 205.339844 185.726562 C 205.285156 186.308594 205.199219 186.890625 205.082031 187.464844 C 204.96875 188.042969 204.828125 188.613281 204.65625 189.175781 C 204.484375 189.738281 204.289062 190.289062 204.0625 190.832031 C 203.839844 191.375 203.589844 191.90625 203.3125 192.421875 C 203.035156 192.941406 202.734375 193.445312 202.40625 193.933594 C 202.082031 194.421875 201.730469 194.894531 201.359375 195.347656 C 200.988281 195.800781 200.59375 196.234375 200.179688 196.652344 C 199.761719 197.066406 199.328125 197.460938 198.875 197.832031 C 198.421875 198.207031 197.949219 198.554688 197.464844 198.882812 C 196.976562 199.207031 196.472656 199.511719 195.953125 199.789062 C 195.4375 200.066406 194.90625 200.316406 194.363281 200.539062 C 193.824219 200.765625 193.269531 200.960938 192.707031 201.132812 C 192.148438 201.304688 191.578125 201.445312 191.003906 201.5625 C 190.425781 201.675781 189.847656 201.761719 189.261719 201.820312 C 188.679688 201.878906 188.09375 201.90625 187.507812 201.90625 C 186.917969 201.90625 186.335938 201.878906 185.75 201.820312 C 185.164062 201.761719 184.585938 201.675781 184.011719 201.5625 C 183.433594 201.445312 182.867188 201.304688 182.304688 201.132812 C 181.742188 200.960938 181.191406 200.765625 180.648438 200.539062 C 180.105469 200.316406 179.578125 200.066406 179.058594 199.789062 C 178.539062 199.511719 178.039062 199.207031 177.550781 198.882812 C 177.0625 198.554688 176.589844 198.207031 176.136719 197.832031 C 175.683594 197.460938 175.25 197.066406 174.835938 196.652344 C 174.417969 196.234375 174.027344 195.800781 173.652344 195.347656 C 173.28125 194.894531 172.933594 194.421875 172.605469 193.933594 C 172.28125 193.445312 171.976562 192.941406 171.703125 192.421875 C 171.425781 191.90625 171.175781 191.375 170.949219 190.832031 C 170.726562 190.289062 170.527344 189.738281 170.355469 189.175781 C 170.1875 188.613281 170.042969 188.042969 169.929688 187.464844 C 169.816406 186.890625 169.730469 186.308594 169.671875 185.726562 C 169.613281 185.140625 169.585938 184.554688 169.585938 183.96875 Z M 169.585938 130.152344"/><path fill="#FFF" d="M 235.085938 211.953125 C 234.5625 211.679688 234.019531 211.460938 233.453125 211.296875 C 232.886719 211.132812 232.308594 211.023438 231.722656 210.976562 C 231.132812 210.925781 230.546875 210.933594 229.960938 211 C 229.375 211.0625 228.800781 211.1875 228.238281 211.367188 C 227.675781 211.542969 227.136719 211.777344 226.621094 212.0625 C 226.105469 212.347656 225.621094 212.683594 225.171875 213.0625 C 224.722656 213.445312 224.3125 213.867188 223.945312 214.328125 C 223.578125 214.789062 223.261719 215.285156 222.992188 215.808594 C 222.164062 217.441406 221.226562 219.007812 220.183594 220.511719 C 219.140625 222.015625 218 223.441406 216.761719 224.789062 C 215.519531 226.132812 214.195312 227.386719 212.785156 228.550781 C 211.371094 229.714844 209.886719 230.773438 208.328125 231.734375 C 206.769531 232.691406 205.152344 233.539062 203.476562 234.273438 C 201.800781 235.007812 200.085938 235.625 198.324219 236.121094 C 196.566406 236.621094 194.777344 236.992188 192.96875 237.246094 C 191.15625 237.496094 189.335938 237.621094 187.507812 237.621094 C 185.675781 237.621094 183.859375 237.496094 182.046875 237.246094 C 180.234375 236.992188 178.449219 236.621094 176.6875 236.121094 C 174.929688 235.625 173.210938 235.007812 171.535156 234.273438 C 169.859375 233.539062 168.246094 232.691406 166.6875 231.734375 C 165.128906 230.773438 163.640625 229.714844 162.230469 228.550781 C 160.816406 227.386719 159.492188 226.132812 158.253906 224.789062 C 157.011719 223.441406 155.871094 222.015625 154.828125 220.511719 C 153.785156 219.007812 152.851562 217.441406 152.023438 215.808594 C 151.753906 215.285156 151.433594 214.792969 151.066406 214.332031 C 150.699219 213.867188 150.289062 213.449219 149.839844 213.066406 C 149.386719 212.6875 148.90625 212.355469 148.390625 212.070312 C 147.871094 211.785156 147.335938 211.550781 146.773438 211.371094 C 146.210938 211.191406 145.636719 211.070312 145.050781 211.003906 C 144.464844 210.9375 143.878906 210.929688 143.292969 210.980469 C 142.703125 211.03125 142.128906 211.136719 141.5625 211.300781 C 140.996094 211.464844 140.449219 211.679688 139.925781 211.953125 C 139.402344 212.222656 138.910156 212.542969 138.449219 212.910156 C 137.988281 213.277344 137.566406 213.6875 137.1875 214.136719 C 136.808594 214.589844 136.476562 215.074219 136.191406 215.589844 C 135.90625 216.105469 135.671875 216.644531 135.496094 217.207031 C 135.316406 217.769531 135.191406 218.34375 135.128906 218.929688 C 135.0625 219.515625 135.054688 220.101562 135.101562 220.691406 C 135.152344 221.277344 135.257812 221.855469 135.421875 222.421875 C 135.585938 222.992188 135.800781 223.535156 136.074219 224.058594 C 137.105469 226.082031 138.257812 228.039062 139.519531 229.925781 C 140.785156 231.8125 142.15625 233.621094 143.632812 235.34375 C 145.109375 237.070312 146.683594 238.703125 148.355469 240.242188 C 150.023438 241.78125 151.777344 243.21875 153.617188 244.550781 C 155.457031 245.882812 157.367188 247.101562 159.351562 248.207031 C 161.332031 249.3125 163.375 250.300781 165.472656 251.164062 C 167.574219 252.03125 169.714844 252.769531 171.902344 253.382812 C 174.089844 253.992188 176.304688 254.472656 178.546875 254.824219 L 178.546875 282.179688 C 178.546875 282.769531 178.601562 283.355469 178.71875 283.929688 C 178.832031 284.507812 179.003906 285.070312 179.226562 285.613281 C 179.453125 286.15625 179.730469 286.675781 180.054688 287.164062 C 180.382812 287.652344 180.753906 288.105469 181.171875 288.523438 C 181.585938 288.941406 182.039062 289.3125 182.527344 289.640625 C 183.015625 289.964844 183.535156 290.242188 184.078125 290.46875 C 184.621094 290.695312 185.179688 290.863281 185.757812 290.976562 C 186.335938 291.09375 186.917969 291.152344 187.507812 291.152344 C 188.09375 291.152344 188.675781 291.09375 189.253906 290.976562 C 189.832031 290.863281 190.390625 290.695312 190.9375 290.46875 C 191.480469 290.242188 191.996094 289.964844 192.484375 289.640625 C 192.972656 289.3125 193.425781 288.941406 193.84375 288.523438 C 194.257812 288.105469 194.628906 287.652344 194.957031 287.164062 C 195.285156 286.675781 195.558594 286.15625 195.785156 285.613281 C 196.011719 285.070312 196.179688 284.507812 196.292969 283.929688 C 196.410156 283.355469 196.46875 282.769531 196.46875 282.179688 L 196.46875 254.824219 C 198.710938 254.472656 200.929688 253.992188 203.117188 253.378906 C 205.308594 252.765625 207.453125 252.023438 209.554688 251.15625 C 211.65625 250.289062 213.695312 249.296875 215.679688 248.1875 C 217.664062 247.078125 219.578125 245.855469 221.417969 244.519531 C 223.257812 243.183594 225.011719 241.742188 226.679688 240.199219 C 228.347656 238.652344 229.921875 237.015625 231.398438 235.285156 C 232.875 233.554688 234.242188 231.746094 235.503906 229.851562 C 236.765625 227.960938 237.910156 226 238.941406 223.96875 C 239.203125 223.449219 239.417969 222.90625 239.574219 222.34375 C 239.734375 221.78125 239.835938 221.207031 239.882812 220.621094 C 239.929688 220.039062 239.917969 219.457031 239.851562 218.875 C 239.785156 218.292969 239.660156 217.726562 239.484375 217.167969 C 239.304688 216.609375 239.074219 216.074219 238.789062 215.5625 C 238.507812 215.050781 238.175781 214.570312 237.800781 214.125 C 237.421875 213.675781 237.007812 213.269531 236.550781 212.90625 C 236.09375 212.539062 235.605469 212.222656 235.085938 211.953125 Z M 235.085938 211.953125"/><path fill="#FFF" d="M 79.980469 129.253906 C 79.390625 129.253906 78.808594 129.3125 78.230469 129.425781 C 77.65625 129.542969 77.09375 129.710938 76.550781 129.9375 C 76.007812 130.160156 75.492188 130.4375 75.003906 130.765625 C 74.511719 131.09375 74.058594 131.464844 73.644531 131.882812 C 73.226562 132.296875 72.855469 132.75 72.53125 133.238281 C 72.203125 133.730469 71.925781 134.246094 71.703125 134.789062 C 71.476562 135.335938 71.308594 135.894531 71.191406 136.472656 C 71.078125 137.050781 71.019531 137.632812 71.019531 138.222656 L 71.019531 247.289062 C 71.019531 247.878906 71.078125 248.460938 71.191406 249.039062 C 71.308594 249.617188 71.476562 250.179688 71.703125 250.722656 C 71.925781 251.265625 72.203125 251.785156 72.53125 252.273438 C 72.855469 252.761719 73.226562 253.214844 73.644531 253.632812 C 74.058594 254.050781 74.511719 254.421875 75.003906 254.75 C 75.492188 255.074219 76.007812 255.351562 76.550781 255.578125 C 77.09375 255.800781 77.65625 255.972656 78.230469 256.085938 C 78.808594 256.203125 79.390625 256.261719 79.980469 256.261719 C 80.570312 256.261719 81.152344 256.203125 81.726562 256.085938 C 82.304688 255.972656 82.867188 255.800781 83.410156 255.578125 C 83.953125 255.351562 84.46875 255.074219 84.957031 254.75 C 85.449219 254.421875 85.898438 254.050781 86.316406 253.632812 C 86.730469 253.214844 87.105469 252.761719 87.429688 252.273438 C 87.757812 251.785156 88.035156 251.265625 88.257812 250.722656 C 88.484375 250.179688 88.652344 249.617188 88.769531 249.039062 C 88.882812 248.460938 88.941406 247.878906 88.941406 247.289062 L 88.941406 138.222656 C 88.941406 137.632812 88.882812 137.050781 88.769531 136.472656 C 88.652344 135.894531 88.484375 135.335938 88.257812 134.789062 C 88.035156 134.246094 87.757812 133.730469 87.429688 133.238281 C 87.105469 132.75 86.730469 132.296875 86.316406 131.882812 C 85.898438 131.464844 85.449219 131.09375 84.957031 130.765625 C 84.46875 130.4375 83.953125 130.160156 83.410156 129.9375 C 82.867188 129.710938 82.304688 129.542969 81.726562 129.425781 C 81.152344 129.3125 80.570312 129.253906 79.980469 129.253906 Z M 79.980469 129.253906"/><g clip-path="url(#a)"><path fill="#FFF" d="M 26.21875 152.214844 C 25.628906 152.214844 25.046875 152.273438 24.46875 152.386719 C 23.890625 152.503906 23.332031 152.671875 22.789062 152.898438 C 22.246094 153.125 21.726562 153.398438 21.238281 153.726562 C 20.75 154.054688 20.296875 154.425781 19.882812 154.84375 C 19.464844 155.257812 19.09375 155.710938 18.765625 156.203125 C 18.441406 156.691406 18.164062 157.207031 17.9375 157.753906 C 17.714844 158.296875 17.542969 158.859375 17.429688 159.433594 C 17.3125 160.011719 17.257812 160.597656 17.257812 161.183594 L 17.257812 223.96875 C 17.257812 224.558594 17.3125 225.140625 17.429688 225.71875 C 17.542969 226.296875 17.714844 226.859375 17.9375 227.402344 C 18.164062 227.945312 18.441406 228.464844 18.765625 228.953125 C 19.09375 229.441406 19.464844 229.894531 19.882812 230.3125 C 20.296875 230.730469 20.75 231.101562 21.238281 231.429688 C 21.726562 231.753906 22.246094 232.03125 22.789062 232.257812 C 23.332031 232.480469 23.890625 232.652344 24.46875 232.765625 C 25.046875 232.882812 25.628906 232.941406 26.21875 232.941406 C 26.804688 232.941406 27.386719 232.882812 27.964844 232.765625 C 28.542969 232.652344 29.101562 232.480469 29.644531 232.257812 C 30.191406 232.03125 30.707031 231.753906 31.195312 231.429688 C 31.683594 231.101562 32.136719 230.730469 32.554688 230.3125 C 32.96875 229.894531 33.339844 229.441406 33.667969 228.953125 C 33.996094 228.464844 34.269531 227.945312 34.496094 227.402344 C 34.722656 226.859375 34.890625 226.296875 35.003906 225.71875 C 35.121094 225.140625 35.175781 224.558594 35.175781 223.96875 L 35.175781 161.183594 C 35.175781 160.597656 35.121094 160.011719 35.003906 159.433594 C 34.890625 158.855469 34.722656 158.296875 34.496094 157.753906 C 34.269531 157.207031 33.996094 156.691406 33.667969 156.203125 C 33.339844 155.710938 32.96875 155.257812 32.554688 154.84375 C 32.136719 154.425781 31.683594 154.054688 31.195312 153.726562 C 30.707031 153.398438 30.191406 153.125 29.644531 152.898438 C 29.101562 152.671875 28.542969 152.503906 27.964844 152.386719 C 27.386719 152.273438 26.804688 152.214844 26.21875 152.214844 Z M 26.21875 152.214844"/></g><path fill="#FFF" d="M 106.863281 148.089844 C 106.273438 148.089844 105.691406 148.148438 105.113281 148.261719 C 104.535156 148.375 103.976562 148.546875 103.433594 148.773438 C 102.890625 148.996094 102.371094 149.273438 101.882812 149.601562 C 101.394531 149.929688 100.941406 150.300781 100.527344 150.714844 C 100.109375 151.132812 99.738281 151.585938 99.410156 152.074219 C 99.085938 152.566406 98.808594 153.082031 98.582031 153.625 C 98.359375 154.171875 98.1875 154.730469 98.074219 155.308594 C 97.957031 155.886719 97.902344 156.46875 97.902344 157.058594 L 97.902344 228.8125 C 97.902344 229.402344 97.957031 229.984375 98.074219 230.5625 C 98.1875 231.140625 98.359375 231.703125 98.582031 232.246094 C 98.808594 232.789062 99.085938 233.308594 99.410156 233.796875 C 99.738281 234.285156 100.109375 234.738281 100.527344 235.15625 C 100.941406 235.574219 101.394531 235.945312 101.882812 236.273438 C 102.371094 236.597656 102.890625 236.875 103.433594 237.101562 C 103.976562 237.324219 104.535156 237.496094 105.113281 237.609375 C 105.691406 237.726562 106.273438 237.78125 106.863281 237.78125 C 107.449219 237.78125 108.03125 237.726562 108.609375 237.609375 C 109.1875 237.496094 109.746094 237.324219 110.289062 237.101562 C 110.835938 236.875 111.351562 236.597656 111.839844 236.273438 C 112.328125 235.945312 112.78125 235.574219 113.199219 235.15625 C 113.613281 234.738281 113.984375 234.285156 114.3125 233.796875 C 114.640625 233.308594 114.914062 232.789062 115.140625 232.246094 C 115.367188 231.703125 115.535156 231.140625 115.648438 230.5625 C 115.765625 229.984375 115.824219 229.402344 115.824219 228.8125 L 115.824219 157.058594 C 115.824219 156.46875 115.765625 155.886719 115.648438 155.308594 C 115.535156 154.730469 115.367188 154.171875 115.140625 153.625 C 114.914062 153.082031 114.640625 152.566406 114.3125 152.074219 C 113.984375 151.585938 113.613281 151.132812 113.199219 150.714844 C 112.78125 150.300781 112.328125 149.929688 111.839844 149.601562 C 111.351562 149.273438 110.835938 148.996094 110.289062 148.773438 C 109.746094 148.546875 109.1875 148.375 108.609375 148.261719 C 108.03125 148.148438 107.449219 148.089844 106.863281 148.089844 Z M 106.863281 148.089844"/><path fill="#FFF" d="M 53.097656 166.027344 C 52.511719 166.027344 51.925781 166.085938 51.351562 166.199219 C 50.773438 166.316406 50.214844 166.484375 49.667969 166.710938 C 49.125 166.9375 48.609375 167.210938 48.121094 167.539062 C 47.632812 167.867188 47.179688 168.238281 46.761719 168.65625 C 46.347656 169.070312 45.976562 169.523438 45.648438 170.015625 C 45.320312 170.503906 45.046875 171.019531 44.820312 171.566406 C 44.59375 172.109375 44.425781 172.671875 44.308594 173.246094 C 44.195312 173.824219 44.136719 174.410156 44.136719 174.996094 L 44.136719 210.425781 C 44.136719 211.015625 44.195312 211.597656 44.308594 212.175781 C 44.425781 212.753906 44.59375 213.316406 44.820312 213.859375 C 45.046875 214.402344 45.320312 214.921875 45.648438 215.410156 C 45.976562 215.898438 46.347656 216.351562 46.761719 216.769531 C 47.179688 217.183594 47.632812 217.558594 48.121094 217.882812 C 48.609375 218.210938 49.125 218.488281 49.667969 218.714844 C 50.214844 218.9375 50.773438 219.109375 51.351562 219.222656 C 51.925781 219.339844 52.511719 219.394531 53.097656 219.394531 C 53.6875 219.394531 54.269531 219.339844 54.847656 219.222656 C 55.425781 219.109375 55.984375 218.9375 56.527344 218.714844 C 57.070312 218.488281 57.585938 218.210938 58.078125 217.882812 C 58.566406 217.558594 59.019531 217.183594 59.433594 216.769531 C 59.851562 216.351562 60.222656 215.898438 60.550781 215.410156 C 60.875 214.921875 61.152344 214.402344 61.378906 213.859375 C 61.601562 213.316406 61.773438 212.753906 61.886719 212.175781 C 62 211.597656 62.058594 211.015625 62.058594 210.425781 L 62.058594 174.996094 C 62.058594 174.410156 62 173.824219 61.886719 173.246094 C 61.773438 172.671875 61.601562 172.109375 61.378906 171.566406 C 61.152344 171.019531 60.875 170.503906 60.550781 170.015625 C 60.222656 169.523438 59.851562 169.070312 59.433594 168.65625 C 59.019531 168.238281 58.566406 167.867188 58.078125 167.539062 C 57.585938 167.210938 57.070312 166.9375 56.527344 166.710938 C 55.984375 166.484375 55.425781 166.316406 54.847656 166.199219 C 54.269531 166.085938 53.6875 166.027344 53.097656 166.027344 Z M 53.097656 166.027344"/><path fill="#FFF" d="M 321.914062 129.253906 C 321.324219 129.253906 320.742188 129.3125 320.167969 129.425781 C 319.589844 129.542969 319.027344 129.710938 318.484375 129.9375 C 317.941406 130.160156 317.425781 130.4375 316.9375 130.765625 C 316.445312 131.09375 315.996094 131.464844 315.578125 131.882812 C 315.164062 132.296875 314.789062 132.75 314.464844 133.238281 C 314.136719 133.730469 313.859375 134.246094 313.636719 134.789062 C 313.410156 135.335938 313.242188 135.894531 313.125 136.472656 C 313.011719 137.050781 312.953125 137.632812 312.953125 138.222656 L 312.953125 247.289062 C 312.953125 247.878906 313.011719 248.460938 313.125 249.039062 C 313.242188 249.617188 313.410156 250.179688 313.636719 250.722656 C 313.859375 251.265625 314.136719 251.785156 314.464844 252.273438 C 314.789062 252.761719 315.164062 253.214844 315.578125 253.632812 C 315.996094 254.050781 316.445312 254.421875 316.9375 254.75 C 317.425781 255.074219 317.941406 255.351562 318.484375 255.578125 C 319.027344 255.800781 319.589844 255.972656 320.167969 256.085938 C 320.742188 256.203125 321.324219 256.261719 321.914062 256.261719 C 322.503906 256.261719 323.085938 256.203125 323.664062 256.085938 C 324.238281 255.972656 324.800781 255.800781 325.34375 255.578125 C 325.886719 255.351562 326.402344 255.074219 326.894531 254.75 C 327.382812 254.421875 327.835938 254.050781 328.25 253.632812 C 328.667969 253.214844 329.039062 252.761719 329.363281 252.273438 C 329.691406 251.785156 329.96875 251.265625 330.191406 250.722656 C 330.417969 250.179688 330.589844 249.617188 330.703125 249.039062 C 330.816406 248.460938 330.875 247.878906 330.875 247.289062 L 330.875 138.222656 C 330.875 137.632812 330.816406 137.050781 330.703125 136.472656 C 330.589844 135.894531 330.417969 135.335938 330.191406 134.789062 C 329.96875 134.246094 329.691406 133.730469 329.363281 133.238281 C 329.039062 132.75 328.667969 132.296875 328.25 131.882812 C 327.835938 131.464844 327.382812 131.09375 326.894531 130.765625 C 326.402344 130.4375 325.886719 130.160156 325.34375 129.9375 C 324.800781 129.710938 324.238281 129.542969 323.664062 129.425781 C 323.085938 129.3125 322.503906 129.253906 321.914062 129.253906 Z M 321.914062 129.253906"/><path fill="#FFF" d="M 268.152344 152.214844 C 267.5625 152.214844 266.980469 152.273438 266.402344 152.386719 C 265.824219 152.503906 265.265625 152.671875 264.722656 152.898438 C 264.179688 153.125 263.664062 153.398438 263.171875 153.726562 C 262.683594 154.054688 262.230469 154.425781 261.816406 154.84375 C 261.398438 155.257812 261.027344 155.710938 260.699219 156.203125 C 260.375 156.691406 260.097656 157.207031 259.871094 157.753906 C 259.648438 158.296875 259.476562 158.859375 259.363281 159.433594 C 259.25 160.011719 259.191406 160.597656 259.191406 161.183594 L 259.191406 223.96875 C 259.191406 224.558594 259.25 225.140625 259.363281 225.71875 C 259.476562 226.296875 259.648438 226.859375 259.871094 227.402344 C 260.097656 227.945312 260.375 228.464844 260.699219 228.953125 C 261.027344 229.441406 261.398438 229.894531 261.816406 230.3125 C 262.230469 230.730469 262.683594 231.101562 263.171875 231.429688 C 263.664062 231.753906 264.179688 232.03125 264.722656 232.257812 C 265.265625 232.480469 265.824219 232.652344 266.402344 232.765625 C 266.980469 232.882812 267.5625 232.941406 268.152344 232.941406 C 268.738281 232.941406 269.324219 232.882812 269.898438 232.765625 C 270.476562 232.652344 271.035156 232.480469 271.582031 232.257812 C 272.125 232.03125 272.640625 231.753906 273.128906 231.429688 C 273.617188 231.101562 274.070312 230.730469 274.488281 230.3125 C 274.902344 229.894531 275.273438 229.441406 275.601562 228.953125 C 275.929688 228.464844 276.203125 227.945312 276.429688 227.402344 C 276.65625 226.859375 276.824219 226.296875 276.941406 225.71875 C 277.054688 225.140625 277.113281 224.558594 277.113281 223.96875 L 277.113281 161.183594 C 277.113281 160.597656 277.054688 160.011719 276.941406 159.433594 C 276.824219 158.855469 276.65625 158.296875 276.429688 157.753906 C 276.203125 157.207031 275.929688 156.691406 275.601562 156.203125 C 275.273438 155.710938 274.902344 155.257812 274.488281 154.84375 C 274.070312 154.425781 273.617188 154.054688 273.128906 153.726562 C 272.640625 153.398438 272.125 153.125 271.582031 152.898438 C 271.035156 152.671875 270.476562 152.503906 269.898438 152.386719 C 269.324219 152.273438 268.738281 152.214844 268.152344 152.214844 Z M 268.152344 152.214844"/><g clip-path="url(#b)"><path fill="#FFF" d="M 348.796875 148.089844 C 348.207031 148.089844 347.625 148.148438 347.046875 148.261719 C 346.472656 148.375 345.910156 148.546875 345.367188 148.773438 C 344.824219 148.996094 344.308594 149.273438 343.816406 149.601562 C 343.328125 149.929688 342.875 150.300781 342.460938 150.714844 C 342.042969 151.132812 341.671875 151.585938 341.34375 152.074219 C 341.019531 152.566406 340.742188 153.082031 340.519531 153.625 C 340.292969 154.171875 340.121094 154.730469 340.007812 155.308594 C 339.894531 155.886719 339.835938 156.46875 339.835938 157.058594 L 339.835938 228.8125 C 339.835938 229.402344 339.894531 229.984375 340.007812 230.5625 C 340.121094 231.140625 340.292969 231.703125 340.515625 232.246094 C 340.742188 232.789062 341.019531 233.308594 341.34375 233.796875 C 341.671875 234.285156 342.042969 234.738281 342.460938 235.15625 C 342.875 235.574219 343.328125 235.945312 343.816406 236.273438 C 344.308594 236.597656 344.824219 236.875 345.367188 237.101562 C 345.910156 237.324219 346.472656 237.496094 347.046875 237.609375 C 347.625 237.726562 348.207031 237.78125 348.796875 237.78125 C 349.382812 237.78125 349.96875 237.726562 350.542969 237.609375 C 351.121094 237.496094 351.679688 237.324219 352.226562 237.101562 C 352.769531 236.875 353.285156 236.597656 353.773438 236.273438 C 354.261719 235.945312 354.714844 235.574219 355.132812 235.15625 C 355.546875 234.738281 355.917969 234.285156 356.246094 233.796875 C 356.574219 233.308594 356.847656 232.789062 357.074219 232.246094 C 357.300781 231.703125 357.46875 231.140625 357.585938 230.5625 C 357.699219 229.984375 357.757812 229.402344 357.757812 228.8125 L 357.757812 157.058594 C 357.757812 156.46875 357.699219 155.886719 357.585938 155.308594 C 357.46875 154.730469 357.300781 154.171875 357.074219 153.625 C 356.847656 153.082031 356.574219 152.566406 356.246094 152.074219 C 355.917969 151.585938 355.546875 151.132812 355.132812 150.714844 C 354.714844 150.300781 354.261719 149.929688 353.773438 149.601562 C 353.285156 149.273438 352.769531 148.996094 352.226562 148.773438 C 351.679688 148.546875 351.121094 148.375 350.542969 148.261719 C 349.96875 148.148438 349.382812 148.089844 348.796875 148.089844 Z M 348.796875 148.089844"/></g><path fill="#FFF" d="M 295.03125 166.027344 C 294.445312 166.027344 293.863281 166.085938 293.285156 166.199219 C 292.707031 166.316406 292.148438 166.484375 291.605469 166.710938 C 291.058594 166.9375 290.542969 167.210938 290.054688 167.539062 C 289.566406 167.867188 289.113281 168.238281 288.695312 168.65625 C 288.28125 169.070312 287.910156 169.523438 287.582031 170.015625 C 287.253906 170.503906 286.980469 171.019531 286.753906 171.566406 C 286.527344 172.109375 286.359375 172.671875 286.246094 173.246094 C 286.128906 173.824219 286.074219 174.410156 286.074219 174.996094 L 286.074219 210.425781 C 286.074219 211.015625 286.128906 211.597656 286.246094 212.175781 C 286.359375 212.753906 286.527344 213.316406 286.753906 213.859375 C 286.980469 214.402344 287.253906 214.921875 287.582031 215.410156 C 287.910156 215.898438 288.28125 216.351562 288.695312 216.769531 C 289.113281 217.183594 289.566406 217.558594 290.054688 217.882812 C 290.542969 218.210938 291.058594 218.488281 291.605469 218.714844 C 292.148438 218.9375 292.707031 219.109375 293.285156 219.222656 C 293.863281 219.339844 294.445312 219.394531 295.03125 219.394531 C 295.621094 219.394531 296.203125 219.339844 296.78125 219.222656 C 297.359375 219.109375 297.917969 218.9375 298.460938 218.714844 C 299.003906 218.488281 299.523438 218.210938 300.011719 217.882812 C 300.5 217.558594 300.953125 217.183594 301.367188 216.769531 C 301.785156 216.351562 302.15625 215.898438 302.484375 215.410156 C 302.808594 214.921875 303.085938 214.402344 303.3125 213.859375 C 303.535156 213.316406 303.707031 212.753906 303.820312 212.175781 C 303.9375 211.597656 303.992188 211.015625 303.992188 210.425781 L 303.992188 174.996094 C 303.992188 174.410156 303.9375 173.824219 303.820312 173.246094 C 303.707031 172.671875 303.535156 172.109375 303.3125 171.566406 C 303.085938 171.019531 302.808594 170.503906 302.484375 170.015625 C 302.15625 169.523438 301.785156 169.070312 301.367188 168.65625 C 300.953125 168.238281 300.5 167.867188 300.011719 167.539062 C 299.523438 167.210938 299.003906 166.9375 298.460938 166.710938 C 297.917969 166.484375 297.359375 166.316406 296.78125 166.199219 C 296.203125 166.085938 295.621094 166.027344 295.03125 166.027344 Z M 295.03125 166.027344"/></svg>